<svg version="1.1" xmlns="http://www.w3.org/2000/svg" xmlns:xlink="http://www.w3.org/1999/xlink" width="114.3408" height="101.72998" viewBox="0,0,114.3408,101.72998"><g transform="translate(-183.09991,-129.38904)"><g data-paper-data="{&quot;isPaintingLayer&quot;:true}" fill="none" fill-rule="nonzero" stroke="none" stroke-width="0.5" stroke-linecap="butt" stroke-linejoin="miter" stroke-miterlimit="10" stroke-dasharray="" stroke-dashoffset="0" font-family="none" font-weight="none" font-size="none" text-anchor="none" style="mix-blend-mode: normal"><path d="" fill="#9966ff"/><path d="" fill="#9966ff"/><path d="" fill="#9966ff"/><path d="" fill="#9966ff"/><path d="" fill="#9966ff"/><path d="" fill="#9966ff"/><path d="" fill="#9966ff"/><path d="" fill="#9966ff"/><path d="" fill="#9966ff"/><path d="" fill="#000000"/><path d="" fill="#9966ff"/><g><path d="M282.77096,131.61705c-0.08407,1.17706 -1.26114,1.09299 -1.26114,1.09299l-0.63593,0.13016c-0.905,0.10285 -1.79151,0.06889 -2.67274,-0.02717c-0.17343,0.21461 -0.42057,0.36719 -0.70292,0.41926l-1.72962,0.3548l0,0l-0.04468,-0.2178c-0.20046,0.06044 -0.35926,0.06217 -0.35926,0.06217l-0.02824,-0.86587c-0.07261,-0.02321 -0.14594,-0.04482 -0.21995,-0.06488c1.52044,7.30961 1.32073,14.43094 1.74575,21.84044c0.02193,0.39274 0.04385,0.78549 0.06578,1.17823l0.13887,1.06486c0,0 0.00556,0.06793 -0.00233,0.17248c1.98189,0.79574 3.97384,2.1229 5.49996,3.35767l0.45586,-0.33652c1.27076,0.95288 2.02846,1.95852 3.07197,3.10451c2.16297,2.3754 5.26725,3.65943 6.59518,6.76822c1.09264,2.55796 0.89586,6.07285 0.26646,8.70363c-1.38433,4.97068 -6.4253,7.1737 -11.65917,7.46046c0.62192,0.32442 0.57925,1.10696 0.57925,1.10696c-0.25905,4.75024 0.56725,9.51029 1.31498,14.25006l-2.38488,-0.05868c-0.74453,-4.76117 -1.54759,-9.53623 -1.28672,-14.31989c0,0 0.03453,-0.63326 0.51721,-0.94598c-3.12318,-0.00887 -6.21631,-0.67361 -8.54705,-1.81422c-4.88866,-2.48001 -8.14094,-7.46649 -7.75958,-13.01669c0.18873,-2.74673 1.80764,-5.97242 2.95893,-8.42515c1.20226,-2.54989 2.71109,-5.19316 5.49664,-6.27683c0.73836,-0.28725 1.56839,-0.34345 2.443,-0.23035l-0.05502,-0.43298c-0.02193,-0.39274 -0.04385,-0.78549 -0.06578,-1.17823c-0.40091,-7.36289 -0.19994,-14.44355 -1.74516,-21.70621c0,0 -0.04369,-0.20535 -0.0076,-0.46125c-1.85105,0.11365 -3.80367,0.71688 -5.3297,1.16774c0,0 -1.1317,0.33436 -1.46606,-0.79734c-0.33436,-1.1317 0.79734,-1.46606 0.79734,-1.46606c1.65014,-0.48753 3.39073,-0.93759 5.13321,-1.10503c0.15509,-0.1727 0.35194,-0.26706 0.52637,-0.3185c0.05263,-0.01778 0.10693,-0.03196 0.16259,-0.04222l1.72962,-0.3548l0.08192,0.39936l0.65239,0.02663l-0.00618,0.15139c1.88283,0.30054 3.72698,0.73853 5.57285,0.52876l1.07058,-0.13926c0,0 1.17706,0.08407 1.09299,1.26114zM280.06373,162.01262c0.03666,-0.29324 0.13757,-0.50386 0.26825,-0.65486c-2.40321,-1.80665 -5.70684,-3.59377 -7.91923,-2.69452c-1.69594,0.68934 -2.86108,3.37129 -3.58935,4.9307c-1.07612,2.29261 -2.60731,5.28494 -2.77433,7.84991c-0.28369,4.35659 2.55518,8.65071 6.47593,10.4692c3.99338,1.95426 8.86176,1.99597 13.01372,0.52951c2.3907,-0.84439 4.66515,-1.91713 5.1199,-4.63747c0.7015,-2.93217 0.74293,-6.85128 -1.38744,-9.22561c-1.32638,-1.47827 -3.35642,-2.42293 -4.72121,-3.91067c-0.34042,-0.37109 -0.64045,-0.72054 -0.9328,-1.05501c-0.58921,0.1213 -1.06145,-0.35093 -1.06145,-0.35093c-0.30735,-0.30735 -0.68945,-0.65927 -1.12707,-1.03004l-0.34035,1.09711c0,0 -1.17095,-0.14638 -1.02457,-1.31732z" fill="#000000"/><path d="M294.2178,221.14341c-0.56149,1.03792 -1.59941,0.47643 -1.59941,0.47643l-0.12389,-0.05241c-0.62467,-0.20689 -1.21812,-0.41598 -1.78551,-0.6475c-0.19686,-0.05198 -0.32882,-0.12976 -0.32882,-0.12976l-1.10635,0.23398c-1.25419,-0.7126 -2.10396,-1.34826 -2.9273,-2.31784c-0.38864,0.17338 -0.76488,0.3348 -1.11522,0.48772c-1.70837,0.74554 -3.70192,1.93802 -5.56619,2.20262c-0.3864,0.05484 -0.77703,0.08283 -1.16996,0.08557c-0.24865,0.31623 -0.48276,0.63932 -0.70485,0.96833c-0.37475,0.80199 -0.83147,1.58356 -1.29415,2.3293l0.48479,0.07771c0,0 -0.00827,1.01674 -0.95324,1.15499l0.23082,0.2669l-0.92698,0.80168c-0.32387,0.71248 -0.64424,1.4316 -0.98013,2.15018l-0.08382,-0.16354c0,0 -0.58237,1.02635 -1.60872,0.44397c-1.02635,-0.58237 -0.44397,-1.60872 -0.44397,-1.60872l-0.00155,0.32886c0.16429,-0.35146 0.32559,-0.70292 0.48576,-1.05368c-0.03517,-0.11185 -0.05413,-0.23089 -0.05413,-0.35436c0,-0.23265 0.06732,-0.44957 0.18355,-0.63235l0.43541,-0.71094c0.41092,-0.6712 0.81612,-1.34237 1.20454,-2.02341c0.19647,-0.37549 0.39988,-0.74696 0.6128,-1.11343c0.08403,-0.15901 0.16687,-0.31881 0.24838,-0.47953c0.03915,-0.07719 0.07389,-0.15744 0.1056,-0.23977l-0.06725,-0.05512l0.15031,-0.18338c0.01145,-0.03592 0.02259,-0.07205 0.03353,-0.1083l-0.20852,-0.24111l0.03324,-0.02875c-3.25061,-0.9881 -6.30953,-3.42172 -8.07372,-6.37758c0.53537,4.03262 -0.93004,8.12031 -5.26086,9.77899c-0.79756,0.30546 -2.33145,0.14324 -3.17692,0.19519c-3.70348,0.19093 -9.26259,-0.24821 -12.41439,-2.46952c-1.18071,-0.83214 -2.16223,-2.04763 -2.91195,-3.43582c-0.11234,0.35914 -0.24519,0.7128 -0.3992,1.0593c-0.72813,1.41034 -1.33166,1.99704 -2.46658,3.04588c-0.05134,0.04745 -0.10282,0.09428 -0.15441,0.14051c0.29728,0.19453 0.62022,0.56725 0.45933,1.2362c-0.02544,0.10578 -0.05829,0.19946 -0.09696,0.28237c0.54268,0.43894 1.18187,0.81353 1.99118,1.30952l-0.17146,0.05214c0,0 0.81932,0.84927 -0.02996,1.66859c-0.84927,0.81932 -1.66859,-0.02996 -1.66859,-0.02996l0.63676,0.32151c-1.1389,-0.69799 -2.09453,-1.3287 -2.90111,-2.13281l-0.04864,0.03572c-0.07029,-0.07709 -0.12522,-0.16805 -0.17293,-0.26516c-0.20397,-0.21952 -0.39794,-0.45246 -0.58253,-0.70314c-2.81493,1.40134 -5.78584,1.29572 -8.36612,0.087c-0.14405,0.03848 -0.30824,0.04705 -0.49214,0.00511c-0.16649,0.2816 -0.41071,0.44087 -0.41071,0.44087c-0.52447,0.34202 -0.967,0.68789 -1.35993,1.04858c-0.2453,0.35793 -0.48787,0.70872 -0.7352,1.02499l-0.79815,0.8044c0,0 -0.0447,0.03764 -0.12258,0.08622c-0.31016,0.42802 -0.62296,0.88726 -0.96867,1.38802l-1.01023,-0.04498c0,0 -0.89487,0.76926 -1.66413,-0.12561c-0.76926,-0.89487 0.12561,-1.66413 0.12561,-1.66413l0.6065,0.49386c0.8835,-1.27975 1.66981,-2.39119 2.65511,-3.37909c0.40258,-0.60313 0.89216,-1.33224 1.39342,-1.94704c-1.62215,-1.47635 -2.91648,-3.46891 -3.66308,-5.8152c-0.98028,-3.24881 -1.20907,-8.10431 1.09954,-10.91617c0.72569,-0.88388 1.75898,-1.38513 2.91781,-1.60209l0.00675,-0.00473c0.30214,-0.05169 0.60429,-0.10337 0.90643,-0.15506c2.89375,-0.49502 5.83225,-0.99059 8.68603,0.07265c2.38453,0.88841 4.29996,2.65148 5.56557,4.80723c1.24566,-3.68318 4.73481,-6.11106 8.58403,-7.12229c3.18507,-0.83675 6.13065,-0.48695 7.57996,2.44363c0.37787,0.06943 0.75583,0.14439 1.13393,0.22683c2.65135,0.68108 4.80071,2.6604 6.16753,5.13188c-0.00982,-0.14122 -0.01615,-0.28257 -0.01893,-0.42398c0.13753,-3.57919 2.66649,-7.65127 6.35578,-8.5453c0.3313,-0.08028 0.68947,-0.12921 1.06738,-0.14983c-0.08339,-4.23707 -0.17615,-8.48353 -0.61181,-12.63089c-0.00541,-0.04584 -0.00819,-0.09249 -0.00819,-0.13979c0,-0.10543 0.01382,-0.20762 0.03976,-0.30488c0.07762,-0.3436 0.3105,-0.78184 0.98584,-0.86517c0.01757,-0.0023 0.03525,-0.00421 0.05305,-0.00572c0.48374,-0.04471 0.786,0.13331 0.97391,0.35504l1.40904,1.05657l-0.9384,1.25144l0.01007,0.09562l-0.01858,0.00196c0.31414,3.74701 0.39039,7.55897 0.46612,11.36122c1.29376,0.23393 2.64225,0.67274 3.84821,1.23162l1.04674,-0.6155c0.29938,-0.0449 0.59875,-0.08981 0.89813,-0.13471c5.70694,-0.67377 11.71603,6.93058 10.33985,12.51088c-0.33872,1.3735 -1.36808,2.4056 -2.60205,3.22057c1.23764,1.04876 2.51647,1.50576 4.16969,2.05329l0.50484,0.21701c0,0 1.03792,0.56149 0.47643,1.59941zM275.57457,217.36502c1.05914,-0.1267 2.90873,-0.09564 3.05226,0.96136c0.03693,0.27196 0.05124,0.5445 0.04565,0.81708c1.97264,-0.34293 3.98304,-1.40017 5.61469,-2.11247c0.59116,-0.25803 1.25474,-0.52717 1.90935,-0.83859c0.03853,-0.02078 0.07656,-0.03896 0.11404,-0.05474c1.48973,-0.72159 2.90822,-1.67241 3.29034,-3.2219c0.33675,-1.36551 -0.93061,-3.24885 -1.59169,-4.363c-1.42023,-2.39358 -2.98716,-5.23091 -6.0926,-4.72139c0.23562,0.19358 0.44802,0.39115 0.63297,0.5909c0,0 0.80173,0.86589 -0.06416,1.66763c-0.86589,0.80173 -1.66763,-0.06416 -1.66763,-0.06416c-0.60937,-0.65814 -1.59237,-1.2674 -2.71806,-1.74635l-0.02405,0.00241c0,0 -0.01587,-0.01034 -0.04228,-0.03041c-1.95219,-0.8177 -4.31588,-1.24257 -5.90411,-0.85608c-1.22965,0.29923 -2.31812,1.88204 -2.94452,2.88888c-0.60843,0.97797 -1.25514,2.08292 -1.07312,3.25014c0.06574,3.35352 2.21177,5.45244 4.76855,7.33245c0.57892,0.42568 1.31693,1.14989 2.03302,1.64942c0.16035,-0.47268 0.21754,-1.09808 0.66134,-1.15117zM237.65159,221.76665c0.29514,-0.14398 0.54821,-0.16576 0.75978,-0.12221c0.23891,-0.19568 0.46046,-0.38939 0.65973,-0.57355c0.79054,-0.73058 1.60496,-1.22108 1.91172,-2.27115c2.04993,-4.61213 -0.63686,-10.45162 -5.40424,-12.22781c-0.25309,-0.09429 -0.51143,-0.16961 -0.77384,-0.22848c0.11969,0.08452 0.23301,0.17044 0.33934,0.25744c0,0 0.91333,0.74725 0.16608,1.66058c-0.74725,0.91333 -1.66058,0.16608 -1.66058,0.16608c-1.40093,-1.14619 -4.21192,-1.98969 -6.34204,-1.37994l-1.39644,0.71367c-0.16598,0.13646 -0.32035,0.28985 -0.4611,0.46128c-0.34788,0.42371 -0.17617,1.08397 -0.31653,1.61391c-0.5449,2.0573 -0.44867,4.56783 0.23888,6.57059c0.59287,1.86318 1.69272,3.78304 3.20165,5.19865l0.91563,-0.63698c0.19331,-0.13832 0.43012,-0.21973 0.68595,-0.21973c0.65173,0 1.18006,0.52833 1.18006,1.18006c0,0.2066 -0.05309,0.4008 -0.14637,0.56969c-0.04283,0.08138 -0.11321,0.21509 -0.19652,0.37339l0.06618,0.38686c0.87344,0.36376 1.82426,0.56048 2.84272,0.53451c0.40843,-0.01041 0.83425,-0.09826 1.26304,-0.24136c-0.07908,-0.1805 -0.11352,-0.40813 -0.06579,-0.69447c0.19404,-1.164 1.35804,-0.96996 1.35804,-0.96996c0.28228,0.04706 0.54133,0.09882 0.78237,0.15799c0.09699,-0.10234 0.22502,-0.19746 0.3923,-0.27906zM240.2161,223.20747c-0.10122,0.08526 -0.20288,0.16822 -0.30494,0.24891c0.16265,0.21994 0.33165,0.41516 0.51052,0.59459zM248.93059,205.5237c-2.50941,1.19643 -4.62612,3.10012 -4.71249,6.05515c-0.21589,3.09015 1.3072,7.03534 3.9014,8.88712c2.40606,1.71748 7.80188,1.99217 10.60081,1.78271c0.82579,-0.05074 2.4025,0.11665 3.17692,-0.19519c1.18947,-0.47897 2.19762,-2.57245 2.61763,-3.70399c1.48563,-4.00242 -0.69498,-10.47954 -5.4142,-11.17087c-2.6401,-0.57558 -5.26517,-0.78101 -7.91162,-1.29465l-1.82097,-0.20964c0,0 -0.20869,-0.02898 -0.43746,-0.15064zM255.7694,204.21734c0.01033,0.00148 0.02065,0.00296 0.03098,0.00444c-0.00152,-0.00192 -0.00304,-0.00383 -0.00456,-0.00575c-0.01653,-0.02073 -0.02393,-0.01729 -0.02642,0.0013z" fill="#000000"/><path d="M183.10248,209.56009c0.06472,-1.17829 1.24301,-1.11356 1.24301,-1.11356l2.50503,1.46309c1.52315,0.98871 3.66949,2.35706 5.71566,2.57186c-0.36817,-0.71753 -0.67831,-1.43114 -0.93055,-2.08843c-0.29308,-0.7637 -1.39229,-3.01392 -0.93436,-3.74858c0.87823,-1.40895 2.2916,-1.93337 3.84141,-1.89492c0.77838,-0.8146 1.76849,-1.407 2.9526,-1.64276c1.38151,-0.10232 2.12241,0.67672 2.44627,1.80451c0.18985,-0.18502 0.38752,-0.36293 0.591,-0.53306c0.44426,-0.37142 1.89188,-1.51258 2.52018,-1.29609c2.12485,0.73215 2.92587,2.08278 3.05107,3.73117c0.24634,-0.73039 0.57862,-1.43279 0.97771,-2.07093c0.43313,-0.69256 2.2246,-3.49554 3.21935,-3.28444c0.654,0.13879 1.17627,0.31434 1.59345,0.53744c1.37006,-0.3358 2.79656,-0.0531 3.92341,1.31208c1.80117,2.18212 1.16978,5.56354 0.41792,8.01649c-0.25215,0.82265 -0.72972,2.43808 -1.50979,2.94557c-0.42894,0.27906 -0.92549,0.42918 -1.41265,0.59722c1.06116,-0.10145 2.08242,-0.29512 2.56263,-0.48015c1.5476,-0.59631 2.50581,-2.18379 3.41126,-3.46648c0,0 0.68053,-0.96407 1.6446,-0.28354c0.96407,0.68053 0.28354,1.6446 0.28354,1.6446c-2.52208,3.57289 -4.91998,4.75631 -9.35879,4.76315c-0.28039,0.00043 -0.56996,-0.01064 -0.86113,-0.03832c-0.29298,0.58208 -0.64849,1.09271 -1.05884,1.30867c-2.55109,1.34258 -5.13644,0.06322 -7.03889,-1.94702c-0.74488,0.69526 -1.69651,1.22717 -2.94206,1.53657c-2.49436,0.35085 -4.47531,-1.13091 -5.94676,-3.08812c-0.05566,-0.0683 -0.10973,-0.13779 -0.16222,-0.20839c-2.75879,0.21599 -5.82584,-1.12476 -8.28104,-2.71849l-1.34946,-1.08615c0,0 -1.17829,-0.06472 -1.11356,-1.24301zM210.52457,210.25888c0.17517,-0.89004 0.32106,-1.79326 0.44335,-2.73625c0.04947,-0.3699 0.55002,-2.52849 0.52191,-2.61626c-0.02866,-0.08949 -0.09064,-0.16457 -0.16679,-0.2328c-0.65994,0.36362 -1.22697,0.98759 -1.58583,1.73953c-0.17674,0.37033 -0.32119,0.76738 -0.43902,1.17347c0.204,0.08175 0.35291,0.17006 0.41869,0.26526c0.46791,0.6772 0.73603,1.52286 0.80768,2.40706zM203.87639,206.46051c-0.21674,-0.18861 -0.50459,-0.33689 -0.5484,-0.60539c-0.04124,-0.25273 0.68284,-0.34854 0.53124,-0.55492c-0.21217,-0.28884 -1.8019,0.8817 -1.84244,0.91303c-0.4585,0.35433 -0.88017,0.74408 -1.20935,1.16578c0.02869,0.02487 0.0571,0.04981 0.08524,0.07481c0.21753,-0.17707 0.43643,-0.35303 0.63611,-0.54456c0.8442,-0.4422 1.57881,-0.52934 2.3476,-0.44875zM212.38214,212.76587c0.89257,0.40276 1.3848,-1.46979 1.60081,-2.14586c0.30947,-0.96856 1.18127,-4.66745 0.64249,-5.27571c-0.37579,-0.42425 -0.77828,-0.70292 -1.18731,-0.8592c0.03857,0.27495 0.06447,0.57148 0.08201,0.89133c0.04025,0.7339 -0.12143,1.73474 -0.2117,2.44972c-0.22212,1.71281 -0.52236,3.31978 -0.92631,4.93972zM208.6608,216.2584c-0.31595,-0.2141 -0.59738,-0.48222 -0.82688,-0.81608c-0.69413,0.31599 -1.40505,0.47448 -2.11485,0.50288c0.32176,0.26564 0.62405,0.45685 0.88126,0.53054c0.37814,0.10834 0.80875,-0.13776 1.18004,-0.00786c0.17113,0.05987 0.05926,0.58198 0.21969,0.49754c0.23682,-0.12463 0.46015,-0.38672 0.66074,-0.70703zM202.7408,212.29956c0.37546,-1.19372 0.59919,-2.41068 0.76411,-3.07852c0.02028,-0.08211 0.05829,-0.22442 0.10569,-0.4007c-0.3482,-0.01995 -0.68514,0.02164 -0.98669,0.17959c-0.28612,-0.35626 -0.42803,-0.28891 -0.47812,0.00027c0.32359,0.75813 0.41352,1.63605 0.31215,2.5234c0.07381,0.29155 0.14685,0.5216 0.20364,0.63058c0.02368,0.04544 0.05015,0.09401 0.07922,0.14538zM208.87196,209.95052c-0.00218,0.08495 -0.00288,0.17271 -0.00214,0.26283c0.14419,0.03664 0.25805,0.04369 0.27042,-0.07293c0.0144,-0.13573 -0.10597,-0.17745 -0.26828,-0.1899zM206.86513,213.33796c-0.70859,-0.83422 -1.08872,-1.8596 -1.20539,-2.95285c-0.27072,1.16161 -0.56725,2.28103 -0.98682,3.29221c0.66086,0.18658 1.28254,0.20505 1.76573,-0.03711c0.12926,-0.06478 0.27506,-0.17007 0.42648,-0.30226zM193.03619,207.20293c0.03257,-0.08714 0.06657,-0.17358 0.10201,-0.25927c-0.01665,-0.31177 0.08808,-0.73785 -0.09946,-0.62539c-0.13929,0.08353 -0.10899,0.43811 -0.00255,0.88466zM199.54699,213.09896c-0.3486,-0.38149 -0.66163,-0.79394 -0.95873,-1.25138c-0.6818,0.9685 -1.47253,1.6482 -2.33389,2.09332c0.09998,0.07018 0.20628,0.13098 0.31917,0.18138c1.11795,0.49916 2.26637,-0.06656 2.97345,-1.02333zM195.10917,211.98715c0.1442,-0.08473 0.28581,-0.18083 0.42448,-0.28904c1.05581,-0.8239 1.7649,-2.28258 2.09827,-3.70552c-0.70663,-0.34296 -1.46761,-0.64379 -2.10851,-0.8472c-0.0148,0.0283 -0.02931,0.05598 -0.04352,0.08292c-0.52562,0.99685 -0.77297,3.10391 -0.37072,4.75883zM197.56341,205.42349c0.05141,0.02055 0.10269,0.04149 0.15383,0.06281c0.01226,-0.01394 0.02673,-0.0262 0.04314,-0.03694c-0.0307,0.00508 -0.061,0.0089 -0.09077,0.01111c-0.03585,-0.01425 -0.07125,-0.02655 -0.1062,-0.03697zM198.03318,205.38306c0.42085,-0.01729 1.03162,0.1725 0.81326,-0.00977c-0.21295,-0.17774 -0.51569,-0.07592 -0.81326,0.00977zM201.56896,214.74474c-0.08205,-0.05014 -0.16347,-0.10154 -0.24422,-0.15413c-0.22364,0.33331 -0.47505,0.64203 -0.75049,0.91643c0.3785,-0.13628 0.70755,-0.40591 0.99471,-0.76229z" fill="#1dc900"/><path d="M274.85472,169.31732c0.27347,0.34328 0.48177,0.68753 0.5965,0.97917c0.32819,0.83428 -0.79467,1.70018 -1.53144,2.21096c-0.32327,0.22411 -0.77159,0.17352 -1.16457,0.19057c-0.69568,0.03019 -1.40649,0.09143 -2.08843,-0.04942c-2.2836,-0.47167 -2.05002,-3.49574 -1.12052,-4.86478c0.33476,-0.49306 1.16761,-0.23951 1.75141,-0.35926c0,0 0.54042,-0.11086 0.95805,0.18853c0.38587,0.04631 0.77232,0.19682 1.13777,0.41085c0.00193,-0.00032 0.00385,-0.00063 0.00577,-0.00095c0.18397,-0.0301 0.33595,0.01311 0.46149,0.10996l0.11574,-0.15834c0,0 1.08554,0.2714 0.87823,1.34269z" fill="#7b7b7b"/><path d="M280.93577,168.82251c0.29206,-0.03511 0.62281,-0.02539 0.9455,0.00472l-0.14212,-0.19884c1.62845,0.26588 3.00781,0.55758 3.38794,2.30603c-0.28514,0.82044 -0.32829,1.77099 -0.85542,2.46133c-0.21789,0.28535 -0.71741,0.09864 -1.07502,0.06677c-0.32241,-0.02873 -0.62108,-0.06831 -0.8959,-0.12182c-0.98181,0.29189 -1.93622,0.10319 -3.06526,-0.73015c-1.02981,-0.76011 -0.50281,-3.24197 -0.24408,-3.80449c0.14552,-0.31639 0.68527,-0.17849 1.03287,-0.15718c0.30365,0.01861 0.61085,0.0785 0.9115,0.17364z" fill="#7b7b7b"/><path d="M278.05177,175.65392c0.12772,0.23652 0.17247,0.44826 0.16542,0.63424l0.21167,0.12699l-0.19098,0.31831c-0.00236,0.2524 -0.04992,0.58325 -0.13359,1.00617c0.0133,0.03214 0.02522,0.065 0.03569,0.0985l0.40415,0.52204l-0.48304,0.37396c-0.15749,0.30289 -0.44248,0.52888 -0.78385,0.60683l-0.1168,0.09042c-0.20098,0.15875 -0.45485,0.2535 -0.73085,0.2535c-0.42755,0 -0.802,-0.22738 -1.00901,-0.56782c-0.10771,-0.03337 -0.19698,-0.10461 -0.26213,-0.22335c-0.08232,0.01818 -0.16787,0.02777 -0.25565,0.02777c-0.54382,0 -1.00173,-0.36786 -1.13845,-0.86832c-0.33313,-0.49433 -0.19613,-0.93098 -0.02114,-1.21152c0.07315,-0.12778 0.1695,-0.24057 0.28332,-0.33262l1.21576,-0.99862c0.20728,-0.33925 0.58105,-0.56568 1.00771,-0.56568c0.18524,0 0.3605,0.04268 0.5165,0.11874c0.35152,-0.08381 0.91984,-0.08629 1.28527,0.59045z" fill="#ff7272"/><path d="M274.40308,229.55941l-0.57104,0.85c-0.2105,0.32325 -0.57509,0.53696 -0.98959,0.53696c-0.65173,0 -1.18006,-0.52833 -1.18006,-1.18006c0,-0.13593 0.02298,-0.2665 0.06528,-0.38802l0.08519,-0.26448c-0.22458,-0.16938 -0.38671,-0.41714 -0.44572,-0.70262c-0.13833,-0.19331 -0.21974,-0.43013 -0.21974,-0.68596c0,-0.15399 0.0295,-0.30109 0.08315,-0.43597l0.35759,-0.96399c-0.32255,-0.67385 0.52164,-1.40013 0.78485,-2.09929c0.44366,-1.17848 0.8343,-2.39175 1.3518,-3.54006c0.0102,-0.04942 0.02018,-0.09893 0.02992,-0.14852c-0.03287,-0.2496 0.03494,-0.47882 0.1125,-0.64753c0.00104,-0.00688 0.00207,-0.01376 0.00309,-0.02065c0,0 0.10934,-0.73419 0.73688,-0.95127l0.50318,-0.60802c0.21639,-0.2654 0.54594,-0.43489 0.91507,-0.43489c0.39936,0 0.75239,0.19839 0.96592,0.50198c0.14431,-0.06291 0.30365,-0.0978 0.47113,-0.0978c0.61819,0 1.12535,0.47535 1.17592,1.08047c0.03652,0.11378 0.05624,0.23509 0.05624,0.36101c0,0.162 -0.03264,0.31638 -0.09172,0.45691l-0.09755,0.24805l-0.05672,0.3616c0.43137,0.66689 -0.53507,2.22469 -1.33436,3.39354c-0.33234,0.94987 -0.665,1.89963 -0.99752,2.84944c-0.01396,0.09103 -0.0383,0.17343 -0.08349,0.23849c-0.03343,0.09551 -0.06687,0.19103 -0.1003,0.28654l-0.31148,0.88993c-0.12052,0.37209 -0.42085,0.66324 -0.79852,0.77097c-0.13081,0.18538 -0.271,0.31087 -0.41991,0.34326z" fill="#ff0000"/><path d="M297.19844,223.64126c-0.38133,0.54166 -0.85266,0.5652 -1.19279,0.48163c-0.20215,0.35979 -0.58744,0.60286 -1.02951,0.60286c-0.15349,0 -0.30013,-0.0293 -0.43464,-0.08262l-1.00729,-0.37225c-0.838,0.28685 -2.77249,-1.5469 -3.56841,-1.97778l-0.51946,-0.27416c-0.83243,0.66652 -1.57936,-0.14263 -1.57936,-0.14263l-1.07545,-1.16505c-0.19565,-0.21062 -0.31529,-0.49281 -0.31529,-0.80295c0,-0.44281 0.2439,-0.82865 0.60468,-1.03052c0.04043,-0.21219 0.13768,-0.40424 0.27532,-0.5597c-0.01752,-0.08087 -0.02674,-0.16484 -0.02674,-0.25096c0,-0.65173 0.52833,-1.18006 1.18006,-1.18006c0.11634,0 0.22876,0.01684 0.33493,0.04821l1.11287,0.30181c1.04203,-0.50404 3.89567,2.06437 4.81763,2.67561l-1.15492,-1.02642c0,0 1.15675,-0.23338 1.39014,0.92337c0.05121,0.25383 0.03549,0.46319 -0.02026,0.63539c0.55323,0.41196 1.10234,0.83787 1.65825,1.2746l0.26462,0.27739c0,0 0.96493,0.67931 0.28562,1.64424z" fill="#ff0000"/><path d="M231.77862,220.78133c0.65173,0 1.18006,0.52833 1.18006,1.18006c0,0.39137 -0.19052,0.73824 -0.48388,0.95293l-1.0826,0.81051c-0.15311,0.11551 -0.30493,0.23274 -0.45561,0.35146c0.00979,0.0612 0.01488,0.12397 0.01488,0.18792c0,0.29566 -0.10873,0.56592 -0.28839,0.77298l-0.66932,0.78085c0.07431,0.80813 -1.13356,1.16752 -1.76685,1.67501c-0.37867,0.30345 -0.75814,0.60624 -1.13916,0.90717c-0.06968,0.0849 -0.13958,0.16972 -0.20971,0.25447c-0.01345,-0.01912 -0.02699,-0.03819 -0.0406,-0.05724c-0.02289,0.01799 -0.04579,0.03597 -0.06869,0.05395c-0.27671,0.23996 -0.55533,0.46694 -0.80884,0.67164c-0.27633,0.4175 -0.54736,0.84223 -0.96422,0.81557l-0.71331,0.66271c-0.21089,0.19707 -0.49412,0.31769 -0.80553,0.31769c-0.07911,0 -0.15641,-0.00779 -0.23116,-0.02263c-0.03962,0.00402 -0.07982,0.00608 -0.1205,0.00608c-0.52085,0 -0.96289,-0.33744 -1.11942,-0.80563c-0.43073,-0.17587 -0.73427,-0.59896 -0.73427,-1.09295c0,-0.28619 0.10188,-0.54859 0.27135,-0.7529l0.74082,-0.90749c-0.05506,-0.61443 1.25425,-1.57819 2.38301,-2.31809l-0.1292,-0.1017l1.45984,-1.85447l0.50549,0.39793c0.08315,-0.10191 0.16413,-0.20456 0.24264,-0.30802c0.15009,-0.1978 0.19624,-0.52101 0.30703,-0.75113c0.21929,-0.09891 0.43564,-0.19602 0.64897,-0.29694c0.07629,0.00004 0.1526,0.00421 0.22894,0.01178l0.1097,-0.17728c0.05793,-0.02938 0.11563,-0.05928 0.1731,-0.08982c0.15932,-0.19586 0.31116,-0.32539 0.44412,-0.34555l0.70328,-0.93083c0.21493,-0.29081 0.56026,-0.4794 0.94963,-0.4794c0.42965,0 0.80567,0.22961 1.01204,0.57283c0.14037,-0.05891 0.29454,-0.09146 0.45632,-0.09146z" fill="#005eff"/><path d="M241.43038,224.13374l0.48065,0.08901c0.15136,0.02509 0.29299,0.07898 0.41907,0.15586c0.26405,0.147 0.56369,0.42359 0.57317,0.92361l0.89927,0.45918c0.39413,0.19109 0.66589,0.59504 0.66589,1.06245c0,0.48685 -0.29483,0.90485 -0.71568,1.08518l0.43682,0.6989c0.11958,0.18454 0.18902,0.40459 0.18902,0.64087c0,0.65173 -0.52833,1.18006 -1.18006,1.18006c-0.24253,0 -0.46796,-0.07316 -0.65545,-0.19862l-0.74903,-0.48468c-0.79639,0.1579 -2.45191,-2.39812 -2.88633,-2.94959l-0.67084,-0.84975c-0.16266,-0.20225 -0.26,-0.45926 -0.26,-0.739c0,-0.32651 0.13261,-0.62205 0.3469,-0.8357c-0.01722,-0.08023 -0.02629,-0.16348 -0.02629,-0.24885c0,-0.65173 0.52833,-1.18006 1.18006,-1.18006c0.31467,0 0.60058,0.12317 0.81214,0.32392l0.69112,0.65288c0.1316,-0.01762 0.28452,0.06391 0.44957,0.21433z" fill="#005eff"/></g></g></g></svg>